<svg width="24" height="25" viewBox="0 0 24 25" fill="none" xmlns="http://www.w3.org/2000/svg">
<rect x="1" y="1.79437" width="22" height="21.7163" rx="10.8582" stroke="#0085F8" stroke-width="2"/>
<g clip-path="url(#clip0)">
<path d="M12 2.79437C6.47714 2.79437 2 7.208 2 12.6525C2 18.0971 6.47714 22.5107 12 22.5107C17.5229 22.5107 22 18.0971 22 12.6525C22 7.208 17.5229 2.79437 12 2.79437ZM15.815 7.81472L14.4319 7.81533C13.3473 7.81533 13.1376 8.32341 13.1376 9.0689V10.7128H15.724L15.7228 13.2875H13.1378V19.8948H10.4401V13.2875H8.18496V10.7128H10.4401V8.81395C10.4401 6.61036 11.8058 5.41024 13.7997 5.41024L15.8152 5.41326V7.81472H15.815Z" fill="#0085F8"/>
</g>
<defs>
<clipPath id="clip0">
<rect width="20" height="19.7163" fill="white" transform="translate(2 2.79437)"/>
</clipPath>
</defs>
</svg>
