<svg width="24" height="25" viewBox="0 0 24 25" fill="none" xmlns="http://www.w3.org/2000/svg">
<rect x="1" y="1.79437" width="22" height="21.7163" rx="10.8582" stroke="#0085F8" stroke-width="2"/>
<g clip-path="url(#clip0)">
<path d="M12.014 15.4483C13.6486 15.4483 14.9736 14.1825 14.9736 12.6211C14.9736 11.0596 13.6486 9.79382 12.014 9.79382C10.3795 9.79382 9.05444 11.0596 9.05444 12.6211C9.05444 14.1825 10.3795 15.4483 12.014 15.4483Z" fill="#0085F8"/>
<path d="M16.5949 12.7787C16.5949 15.1953 14.544 17.154 12.014 17.154C9.4841 17.154 7.43316 15.1953 7.43316 12.7787C7.43316 12.3457 7.49945 11.9274 7.62221 11.5322H6.26855V17.6694C6.26855 17.9873 6.53208 18.2469 6.85433 18.2469H17.117C17.4395 18.2469 17.7032 17.9873 17.7032 17.6694V11.5322H16.4058C16.5284 11.9274 16.5949 12.3457 16.5949 12.7787Z" fill="#0085F8"/>
<path d="M15.3671 9.87608H17.0328C17.3978 9.87608 17.6961 9.582 17.6961 9.22217V7.65656C17.6961 7.29652 17.3978 7.00244 17.0328 7.00244H15.3671C15.0019 7.00244 14.7036 7.29652 14.7036 7.65656V9.22217C14.7034 9.5818 15.0019 9.87608 15.3671 9.87608Z" fill="#0085F8"/>
<path d="M12 2.79437C6.47714 2.79437 2 7.208 2 12.6525C2 18.0971 6.47714 22.5107 12 22.5107C17.5229 22.5107 22 18.0971 22 12.6525C22 7.208 17.5229 2.79437 12 2.79437ZM17.4772 19.917H6.52297C5.48215 19.917 4.6312 19.1576 4.6312 18.0525V7.25298C4.6312 6.14746 5.48215 5.38825 6.52297 5.38825H17.4772C18.5179 5.38825 19.369 6.14746 19.369 7.25298V18.0525C19.369 19.1576 18.5176 19.917 17.4772 19.917Z" fill="#0085F8"/>
</g>
<defs>
<clipPath id="clip0">
<rect width="20" height="19.7163" fill="white" transform="translate(2 2.79437)"/>
</clipPath>
</defs>
</svg>
