<svg width="24" height="25" viewBox="0 0 24 25" fill="none" xmlns="http://www.w3.org/2000/svg">
<rect x="1" y="1.79437" width="22" height="21.7163" rx="10.8582" stroke="#0085F8" stroke-width="2"/>
<g clip-path="url(#clip0)">
<path d="M12.0094 10.9647C12.9643 10.9613 13.7248 10.2051 13.7213 9.26173C13.7179 8.31796 12.9557 7.56703 12.0004 7.56622C11.0371 7.56522 10.2678 8.33007 10.2752 9.2823C10.2824 10.2222 11.0515 10.9681 12.0094 10.9647Z" fill="#0085F8"/>
<path d="M12 2.79437C6.47714 2.79437 2 7.2082 2 12.6525C2 18.0969 6.47714 22.5107 12 22.5107C17.5229 22.5107 22 18.0969 22 12.6525C22 7.2082 17.5229 2.79437 12 2.79437ZM12.0143 5.79226C13.9621 5.7975 15.5255 7.36815 15.5155 9.30953C15.5057 11.2061 13.9167 12.7433 11.9722 12.7368C10.0475 12.7304 8.46895 11.1573 8.48041 9.25689C8.49125 7.33568 10.0706 5.78702 12.0143 5.79226ZM15.9595 14.1011C15.5288 14.537 15.0103 14.8525 14.4346 15.0725C13.8903 15.2805 13.2939 15.3852 12.7034 15.455C12.7928 15.5506 12.8348 15.5976 12.8904 15.6524C13.6917 16.4465 14.4968 17.2366 15.2953 18.0329C15.5675 18.3044 15.6241 18.6408 15.4744 18.9561C15.3109 19.301 14.944 19.5277 14.5841 19.5033C14.3562 19.4878 14.1784 19.3762 14.0207 19.2195C13.4159 18.6197 12.7996 18.0305 12.2075 17.4193C12.0346 17.2414 11.9519 17.2753 11.7995 17.4298C11.1912 18.0474 10.5729 18.6552 9.9511 19.2597C9.67182 19.5312 9.33954 19.5804 9.01545 19.4251C8.6711 19.2609 8.45217 18.9141 8.46895 18.5654C8.48082 18.3302 8.59826 18.1499 8.76235 17.9889C9.5556 17.2086 10.3464 16.4258 11.1374 15.6436C11.19 15.5917 11.2387 15.5367 11.315 15.456C10.2361 15.3448 9.26322 15.083 8.43028 14.441C8.32675 14.3611 8.22015 14.2841 8.12604 14.1945C7.76123 13.8494 7.7246 13.4539 8.01289 13.0469C8.25985 12.6983 8.67396 12.6051 9.10465 12.8054C9.18813 12.8439 9.26752 12.8928 9.34363 12.9444C10.8958 13.9959 13.0281 14.0247 14.5864 12.9914C14.7407 12.8752 14.9058 12.7796 15.0971 12.7314C15.4686 12.637 15.8157 12.7719 16.0149 13.0926C16.2431 13.4591 16.2404 13.8165 15.9595 14.1011Z" fill="#0085F8"/>
</g>
<defs>
<clipPath id="clip0">
<rect width="20" height="19.7163" fill="white" transform="translate(2 2.79437)"/>
</clipPath>
</defs>
</svg>
