<svg width="24" height="25" viewBox="0 0 24 25" fill="none" xmlns="http://www.w3.org/2000/svg">
<g clip-path="url(#clip0)">
<path d="M12 24.4823C18.629 24.4823 24 19.1875 24 12.6525C24 6.11757 18.629 0.822754 12 0.822754C5.371 0.822754 0 6.11757 0 12.6525C0 19.1875 5.371 24.4823 12 24.4823ZM5.491 12.3962L17.061 7.99851C17.598 7.80726 18.067 8.12765 17.893 8.92813L17.894 8.92714L15.924 18.0765C15.778 18.7252 15.387 18.8829 14.84 18.5773L11.84 16.3977L10.393 17.7719C10.233 17.9296 10.098 18.0627 9.788 18.0627L10.001 15.053L15.561 10.1012C15.803 9.89127 15.507 9.77297 15.188 9.98197L8.317 14.2466L5.355 13.3357C4.712 13.1346 4.698 12.7018 5.491 12.3962Z" fill="#0085F8"/>
</g>
<defs>
<clipPath id="clip0">
<rect width="24" height="23.6596" fill="white" transform="translate(0 0.822754)"/>
</clipPath>
</defs>
</svg>
