<svg width="24" height="25" viewBox="0 0 24 25" fill="none" xmlns="http://www.w3.org/2000/svg">
<rect x="1" y="1.79437" width="22" height="21.7163" rx="10.8582" stroke="#0085F8" stroke-width="2"/>
<g clip-path="url(#clip0)">
<path d="M12 2.79437C6.47734 2.79437 2 7.208 2 12.6525C2 18.0971 6.47734 22.5107 12 22.5107C17.5227 22.5107 22 18.0971 22 12.6525C22 7.208 17.5227 2.79437 12 2.79437ZM17.0725 13.7187C17.5386 14.1675 18.0317 14.5899 18.4501 15.085C18.6355 15.3041 18.8102 15.5306 18.9432 15.7854C19.1331 16.1486 18.9616 16.547 18.6318 16.5686L16.5831 16.5682C16.054 16.6113 15.6329 16.4009 15.278 16.0443C14.9946 15.7601 14.7317 15.4566 14.4587 15.1627C14.3472 15.0421 14.2298 14.9285 14.0898 14.8392C13.8105 14.6601 13.5679 14.7149 13.4079 15.0026C13.2448 15.2952 13.2076 15.6196 13.192 15.9453C13.1697 16.4215 13.024 16.546 12.5393 16.5684C11.5036 16.6162 10.5209 16.4613 9.60757 15.9465C8.80184 15.4925 8.17821 14.8517 7.63478 14.1262C6.57657 12.7118 5.76614 11.1595 5.03795 9.56266C4.87407 9.20303 4.99396 9.01061 5.39642 9.00315C6.06506 8.99044 6.73371 8.99205 7.40235 9.00254C7.67448 9.00678 7.85453 9.16027 7.95908 9.41341C8.32041 10.2898 8.76338 11.1236 9.31847 11.897C9.46639 12.1029 9.61739 12.3082 9.83243 12.4537C10.0698 12.6142 10.2506 12.5612 10.3626 12.3C10.4342 12.134 10.4651 11.9565 10.4806 11.7786C10.5338 11.1692 10.5402 10.5601 10.4481 9.95316C10.3908 9.57336 10.1741 9.32809 9.79008 9.25628C9.59448 9.21977 9.62312 9.14837 9.71826 9.03824C9.88338 8.84784 10.0381 8.73004 10.3472 8.73004L12.6619 8.72964C13.0267 8.80023 13.1085 8.9616 13.1581 9.32385L13.1601 11.8596C13.1558 11.9998 13.2315 12.4153 13.4869 12.5071C13.6915 12.5737 13.8265 12.4119 13.9488 12.2842C14.5039 11.7035 14.8994 11.0181 15.2536 10.3088C15.4099 9.99592 15.5448 9.67219 15.6757 9.34785C15.7731 9.10803 15.9245 8.99003 16.1991 8.99407L18.428 8.99669C18.4937 8.99669 18.5604 8.9973 18.6255 9.00839C19.0011 9.07172 19.104 9.23107 18.9878 9.59231C18.8049 10.1599 18.4495 10.6327 18.1021 11.1067C17.7297 11.6142 17.3326 12.1039 16.9639 12.6136C16.6251 13.0795 16.6519 13.3141 17.0725 13.7187Z" fill="#0085F8"/>
</g>
<defs>
<clipPath id="clip0">
<rect width="20" height="19.7163" fill="white" transform="translate(2 2.79437)"/>
</clipPath>
</defs>
</svg>
