<svg width="18" height="18" viewBox="0 0 18 18" fill="none" xmlns="http://www.w3.org/2000/svg">
<path fill-rule="evenodd" clip-rule="evenodd" d="M9.00033 0.666668C4.40033 0.666668 0.666992 4.4 0.666992 9C0.666992 13.6 4.40033 17.3333 9.00033 17.3333C13.6003 17.3333 17.3337 13.6 17.3337 9C17.3337 4.4 13.6003 0.666668 9.00033 0.666668ZM9.00033 15.6667C5.32533 15.6667 2.33366 12.675 2.33366 9C2.33366 5.325 5.32533 2.33333 9.00033 2.33333C12.6753 2.33333 15.667 5.325 15.667 9C15.667 12.675 12.6753 15.6667 9.00033 15.6667ZM7.33366 10.8083L12.8253 5.31668L14.0003 6.50002L7.33366 13.1667L4.00033 9.83335L5.17533 8.65835L7.33366 10.8083Z" fill="currentColor"/>
</svg>
