<svg width="16" height="16" viewBox="0 0 16 16" fill="none" xmlns="http://www.w3.org/2000/svg">
  <path d="M13.8333 0.5H2.16667C1.2475 0.5 0.5 1.2475 0.5 2.16667V13.8333C0.5 14.7525 1.2475 15.5 2.16667 15.5H13.8333C14.7525 15.5 15.5 14.7525 15.5 13.8333V2.16667C15.5 1.2475 14.7525 0.5 13.8333 0.5ZM2.16667 13.8333V2.16667H13.8333L13.835 13.8333H2.16667Z" fill="currentColor"/>
  <path d="M6.33333 9.66667L5.5 8.83333L3 12.1667H13L8.83333 6.33333L6.33333 9.66667Z" fill="currentColor"/>
  <path d="M5.08333 7.16667C5.77369 7.16667 6.33333 6.60702 6.33333 5.91667C6.33333 5.22631 5.77369 4.66667 5.08333 4.66667C4.39298 4.66667 3.83333 5.22631 3.83333 5.91667C3.83333 6.60702 4.39298 7.16667 5.08333 7.16667Z" fill="currentColor"/>
</svg>
