<svg width="18" height="16" viewBox="0 0 18 16" fill="none" xmlns="http://www.w3.org/2000/svg">
<path fill-rule="evenodd" clip-rule="evenodd" d="M2.6764 0.501465L16.8171 14.6422L16.8186 14.6407L16.82 14.6421L15.6415 15.8207L12.8441 13.0233C11.7967 13.5118 10.527 13.8333 8.99935 13.8333C2.67268 13.8333 0.771281 8.31917 0.753046 8.26334L0.666016 8L0.753875 7.73667C0.76487 7.7014 1.52772 5.48786 3.68308 3.86224L1.49935 1.67852L2.6764 0.501465ZM11.5716 11.7508L10.0739 10.2531C9.74735 10.4111 9.38258 10.5 8.99935 10.5C7.63102 10.5 6.49935 9.36834 6.49935 8C6.49935 7.61678 6.58822 7.252 6.74628 6.92544L4.86295 5.04211C3.39017 6.05494 2.67883 7.4248 2.42982 8C2.84591 8.96167 4.56413 12.1667 8.99935 12.1667C9.98602 12.1667 10.8382 12.008 11.5716 11.7508Z" fill="#8D9FBB"/>
<path d="M6.9162 2.38424C7.55026 2.24544 8.2432 2.16667 8.99935 2.16667C15.326 2.16667 17.2274 7.68084 17.2457 7.73667L17.3327 8L17.2448 8.26334C17.2362 8.29086 16.77 9.64428 15.5419 11.0099L14.3822 9.85022C15.0375 9.10801 15.4042 8.38031 15.5689 8C15.1528 7.03834 13.4346 3.83334 8.99935 3.83334C8.78895 3.83334 8.58467 3.84055 8.38635 3.85439L6.9162 2.38424Z" fill="#8D9FBB"/>
</svg>
