<svg width="16" height="18" viewBox="0 0 16 18" fill="none" xmlns="http://www.w3.org/2000/svg">
<path d="M10.5 0.666656H5.5C4.58083 0.666656 3.83333 1.41416 3.83333 2.33332V3.16666H0.5V4.83332H2.16667V15.6667C2.16667 16.5858 2.91417 17.3333 3.83333 17.3333H12.1667C13.0858 17.3333 13.8333 16.5858 13.8333 15.6667V4.83332H15.5V3.16666H12.1667V2.33332C12.1667 1.41416 11.4192 0.666656 10.5 0.666656ZM5.5 2.33332H10.5V3.16666H5.5V2.33332ZM12.1667 15.6667H3.83333V4.83332H12.1667V15.6667Z" fill="#8D9FBB"/>
<path d="M5.5 6.49999H7.16667V14H5.5V6.49999Z" fill="#8D9FBB"/>
<path d="M8.83333 6.49999H10.5V14H8.83333V6.49999Z" fill="#8D9FBB"/>
</svg>
