<svg width="18" height="12" viewBox="0 0 18 12" fill="none" xmlns="http://www.w3.org/2000/svg">
  <path d="M8.99935 3.49999C7.63102 3.49999 6.49935 4.63249 6.49935 5.99999C6.49935 7.36832 7.63102 8.49999 8.99935 8.49999C10.3668 8.49999 11.4993 7.36832 11.4993 5.99999C11.4993 4.63249 10.3668 3.49999 8.99935 3.49999Z" fill="currentColor"/>
  <path d="M8.99935 0.166656C2.67268 0.166656 0.771281 5.68082 0.753875 5.73666L0.666016 5.99999L0.753046 6.26332C0.771281 6.31916 2.67268 11.8333 8.99935 11.8333C15.326 11.8333 17.2274 6.31916 17.2448 6.26332L17.3327 5.99999L17.2457 5.73666C17.2274 5.68082 15.326 0.166656 8.99935 0.166656ZM8.99935 10.1667C4.56413 10.1667 2.84591 6.96166 2.42982 5.99999C2.84757 5.03499 4.56662 1.83332 8.99935 1.83332C13.4346 1.83332 15.1528 5.03832 15.5689 5.99999C15.1511 6.96499 13.4321 10.1667 8.99935 10.1667Z" fill="currentColor"/>
</svg>
