<svg width="45" height="44" viewBox="0 0 45 44" fill="none" xmlns="http://www.w3.org/2000/svg">
<ellipse cx="22.6653" cy="21.9872" rx="22" ry="21.4286" fill="url(#paint0_linear)" fill-opacity="0.3"/>
<path d="M31.4153 20.7693H23.9153V13.4641C23.9153 13.1412 23.7836 12.8315 23.5492 12.6032C23.3147 12.3749 22.9968 12.2466 22.6653 12.2466C22.3338 12.2466 22.0158 12.3749 21.7814 12.6032C21.547 12.8315 21.4153 13.1412 21.4153 13.4641V20.7693H13.9153C13.5838 20.7693 13.2658 20.8976 13.0314 21.1259C12.797 21.3542 12.6653 21.6639 12.6653 21.9868C12.6653 22.3097 12.797 22.6194 13.0314 22.8478C13.2658 23.0761 13.5838 23.2044 13.9153 23.2044H21.4153V30.5096C21.4153 30.8325 21.547 31.1422 21.7814 31.3705C22.0158 31.5988 22.3338 31.7271 22.6653 31.7271C22.9968 31.7271 23.3147 31.5988 23.5492 31.3705C23.7836 31.1422 23.9153 30.8325 23.9153 30.5096V23.2044H31.4153C31.7468 23.2044 32.0647 23.0761 32.2992 22.8478C32.5336 22.6194 32.6653 22.3097 32.6653 21.9868C32.6653 21.6639 32.5336 21.3542 32.2992 21.1259C32.0647 20.8976 31.7468 20.7693 31.4153 20.7693Z" fill="#0085F8"/>
<defs>
<linearGradient id="paint0_linear" x1="0.665168" y1="21.9871" x2="44.6652" y2="21.9871" gradientUnits="userSpaceOnUse">
<stop stop-color="#DBF0FF"/>
<stop offset="1" stop-color="#DCFDEE"/>
</linearGradient>
</defs>
</svg>
